<svg fill="#333333" xmlns="http://www.w3.org/2000/svg" xmlns:xlink="http://www.w3.org/1999/xlink" version="1.2" baseProfile="tiny" x="0px" y="0px" viewBox="0 0 128 128" xml:space="preserve"><g><circle fill="none" stroke="#333333" stroke-width="4" stroke-linecap="round" stroke-linejoin="round" stroke-miterlimit="10" cx="64" cy="64" r="62"></circle><path fill="none" stroke="#333333" stroke-width="4" stroke-linecap="round" stroke-linejoin="round" stroke-miterlimit="10" d="   M92,32c2.9-7.6-10-10-10-10S84.3,34.9,92,32z"></path><path fill="none" stroke="#333333" stroke-width="4" stroke-linecap="round" stroke-linejoin="round" stroke-miterlimit="10" d="   M101.9,41.9c7.5-3.3,0-14.1,0-14.1S94.5,38.6,101.9,41.9z"></path><path fill="none" stroke="#333333" stroke-width="4" stroke-linecap="round" stroke-linejoin="round" stroke-miterlimit="10" d="   M107.6,56.6c8.2-0.2,5.5-13,5.5-13S102,50.6,107.6,56.6z"></path><path fill="none" stroke="#333333" stroke-width="4" stroke-linecap="round" stroke-linejoin="round" stroke-miterlimit="10" d="   M107.4,70.2c6.8,4.5,11.9-7.5,11.9-7.5S106.2,62.1,107.4,70.2z"></path><path fill="none" stroke="#333333" stroke-width="4" stroke-linecap="round" stroke-linejoin="round" stroke-miterlimit="10" d="   M102.7,83.1c5,6.4,13.7-3.4,13.7-3.4S104.2,75.1,102.7,83.1z"></path><path fill="none" stroke="#333333" stroke-width="4" stroke-linecap="round" stroke-linejoin="round" stroke-miterlimit="10" d="   M93.6,95c3.4,7.4,14.1-0.2,14.1-0.2S96.8,87.5,93.6,95z"></path><path fill="none" stroke="#333333" stroke-width="4" stroke-linecap="round" stroke-linejoin="round" stroke-miterlimit="10" d="   M36,32c-2.9-7.6,10-10,10-10S43.7,34.9,36,32z"></path><path fill="none" stroke="#333333" stroke-width="4" stroke-linecap="round" stroke-linejoin="round" stroke-miterlimit="10" d="   M26.1,41.9c-7.5-3.3,0-14.1,0-14.1S33.5,38.6,26.1,41.9z"></path><path fill="none" stroke="#333333" stroke-width="4" stroke-linecap="round" stroke-linejoin="round" stroke-miterlimit="10" d="   M20.4,56.6c-8.2-0.2-5.5-13-5.5-13S26,50.6,20.4,56.6z"></path><path fill="none" stroke="#333333" stroke-width="4" stroke-linecap="round" stroke-linejoin="round" stroke-miterlimit="10" d="   M20.6,70.2c-6.8,4.5-11.9-7.5-11.9-7.5S21.8,62.1,20.6,70.2z"></path><path fill="none" stroke="#333333" stroke-width="4" stroke-linecap="round" stroke-linejoin="round" stroke-miterlimit="10" d="   M25.3,83.1c-5,6.4-13.7-3.4-13.7-3.4S23.8,75.1,25.3,83.1z"></path><path fill="none" stroke="#333333" stroke-width="4" stroke-linecap="round" stroke-linejoin="round" stroke-miterlimit="10" d="   M34.4,95c-3.4,7.4-14.1-0.2-14.1-0.2S31.2,87.5,34.4,95z"></path><path fill="none" stroke="#333333" stroke-width="4" stroke-linecap="round" stroke-linejoin="round" stroke-miterlimit="10" d="   M92,32c9.1,7.4,14.9,19.6,14.9,32.3c0,18.4-12.1,33.9-28.9,38.7c-7,2-17,4-20,12"></path><path fill="none" stroke="#333333" stroke-width="4" stroke-linecap="round" stroke-linejoin="round" stroke-miterlimit="10" d="   M36,32c-9.1,7.4-14.9,19.6-14.9,32.3c0,18.4,12.1,33.9,28.9,38.7c7,2,17,4,20,12"></path></g><g><circle fill="none" stroke="#333333" stroke-width="4" stroke-linecap="round" stroke-linejoin="round" stroke-miterlimit="10" cx="64" cy="64" r="28"></circle><circle fill="none" stroke="#333333" stroke-width="4" stroke-linecap="round" stroke-linejoin="round" stroke-miterlimit="10" cx="64" cy="64" r="4.5"></circle><ellipse transform="matrix(0.7071 -0.7071 0.7071 0.7071 -31.007 74.8575)" fill="none" stroke="#333333" stroke-width="4" stroke-linecap="round" stroke-linejoin="round" stroke-miterlimit="10" cx="74.9" cy="74.9" rx="4.5" ry="4.5"></ellipse><ellipse transform="matrix(0.7071 -0.7071 0.7071 0.7071 -22.0123 53.1425)" fill="none" stroke="#333333" stroke-width="4" stroke-linecap="round" stroke-linejoin="round" stroke-miterlimit="10" cx="53.1" cy="53.1" rx="4.5" ry="4.5"></ellipse><ellipse transform="matrix(0.7071 -0.7071 0.7071 0.7071 -15.6522 68.4973)" fill="none" stroke="#333333" stroke-width="4" stroke-linecap="round" stroke-linejoin="round" stroke-miterlimit="10" cx="74.9" cy="53.1" rx="4.5" ry="4.5"></ellipse><ellipse transform="matrix(0.7071 -0.7071 0.7071 0.7071 -37.3672 59.5027)" fill="none" stroke="#333333" stroke-width="4" stroke-linecap="round" stroke-linejoin="round" stroke-miterlimit="10" cx="53.1" cy="74.9" rx="4.5" ry="4.5"></ellipse><path fill="none" stroke="#333333" stroke-width="4" stroke-linecap="round" stroke-linejoin="round" stroke-miterlimit="10" d="   M68.5,36.5c0,2.5-2,4.5-4.5,4.5c-2.5,0-4.5-2-4.5-4.5"></path><path fill="none" stroke="#333333" stroke-width="4" stroke-linecap="round" stroke-linejoin="round" stroke-miterlimit="10" d="   M59.5,91.5c0-2.5,2-4.5,4.5-4.5c2.5,0,4.5,2,4.5,4.5"></path><path fill="none" stroke="#333333" stroke-width="4" stroke-linecap="round" stroke-linejoin="round" stroke-miterlimit="10" d="   M91.5,68.5c-2.5,0-4.5-2-4.5-4.5c0-2.5,2-4.5,4.5-4.5"></path><path fill="none" stroke="#333333" stroke-width="4" stroke-linecap="round" stroke-linejoin="round" stroke-miterlimit="10" d="   M36.5,59.5c2.5,0,4.5,2,4.5,4.5c0,2.5-2,4.5-4.5,4.5"></path></g></svg>